<?xml version="1.0" encoding="iso-8859-1"?>
<!-- Generator: Adobe Illustrator 19.0.0, SVG Export Plug-In . SVG Version: 6.00 Build 0)  -->
<svg version="1.1" id="Layer_1" xmlns="http://www.w3.org/2000/svg" xmlns:xlink="http://www.w3.org/1999/xlink" x="0px" y="0px"
	 viewBox="0 0 512 512" style="enable-background:new 0 0 512 512;" xml:space="preserve">
<circle style="fill:#F74D37;" cx="255.994" cy="262.716" r="226.059"/>
<path style="fill:#C43D2C;" d="M255.993,488.771c0-76.637,0-374.466,0-452.121c60.383,0,117.152,23.514,159.849,66.212l0,0l0,0
	c42.697,42.697,66.212,99.465,66.212,159.849s-23.514,117.152-66.212,159.849C373.146,465.256,316.376,488.771,255.993,488.771z"/>
<g>
	<path style="fill:#B03727;" d="M297.665,270.333c0-10.857-8.8-19.657-19.657-19.657H30.253c-0.209,3.986-0.319,7.999-0.319,12.036
		c0,9.234,0.568,18.334,1.644,27.278h246.432C288.865,289.991,297.665,281.189,297.665,270.333z"/>
	<path style="fill:#B03727;" d="M230.981,392.477H70.878c10.139,14.438,21.926,27.63,35.084,39.315h125.019
		c10.857,0,19.657-8.8,19.657-19.657S241.838,392.477,230.981,392.477z"/>
	<path style="fill:#B03727;" d="M204.854,135.851c10.857,0,19.657-8.8,19.657-19.657s-8.8-19.657-19.657-19.657H102.749
		c-12.734,11.749-24.118,24.936-33.884,39.315h135.99V135.851z"/>
</g>
<g>
	<path style="fill:#952F22;" d="M333.744,212.921H476.54c-3.059-13.611-7.346-26.756-12.737-39.315H333.744
		c-10.857,0-19.657,8.8-19.657,19.657S322.887,212.921,333.744,212.921z"/>
	<path style="fill:#952F22;" d="M472.542,327.745H352.904c-10.857,0-19.657,8.8-19.657,19.657s8.8,19.657,19.657,19.657h103.663
		C463.067,354.592,468.435,341.442,472.542,327.745z"/>
	<path style="fill:#952F22;" d="M278.008,250.676h-22.014v39.315h22.014c10.857,0,19.657-8.8,19.657-19.657
		C297.665,259.476,288.865,250.676,278.008,250.676z"/>
</g>
<path style="fill:#D8D9DD;" d="M502.073,9.956c-19.625-19.625-54.304-5.007-65.7-0.204c-22.82,9.617-50.561,26.107-82.514,49.028
	c11.097,5.336,21.692,11.549,31.694,18.553c22.41-15.378,42.623-27.28,59.17-34.787c22.536-10.226,31.464-9.321,33.587-8.838
	c0.741,3.399,2.551,24.392-40.551,88.283c-34.515,51.161-86.013,111.825-145.005,170.817
	c-12.218,12.217-24.506,24.106-36.767,35.596c-46.945,43.991-93.485,82.041-134.051,109.407
	c-64.276,43.362-85.138,41.268-88.342,40.538c-1.792-5.718,2.349-30.657,38.124-84.529c-7.107-9.97-13.421-20.541-18.858-31.622
	C2.263,434.599-11.795,480.423,9.905,502.123C16.487,508.705,25.354,512,36.411,512c8.16,0,17.515-1.796,28.022-5.391
	c18.908-6.469,42.26-18.786,69.406-36.609c37.101-24.358,79.084-57.512,122.15-96.254c20.02-18.01,40.272-37.224,60.379-57.329
	c63.36-63.359,117.903-128.182,153.584-182.529c17.823-27.146,30.141-50.498,36.61-69.406
	C515.023,39.743,513.513,21.398,502.073,9.956z"/>
<path style="fill:#B7B9C0;" d="M502.073,9.956c-19.626-19.625-54.304-5.007-65.7-0.204c-22.82,9.617-50.561,26.107-82.514,49.028
	c11.097,5.336,21.692,11.549,31.694,18.553c22.411-15.378,42.623-27.28,59.17-34.787c22.536-10.226,31.464-9.321,33.587-8.838
	c0.741,3.399,2.551,24.392-40.551,88.283c-34.515,51.161-86.013,111.825-145.005,170.817
	c-12.218,12.217-24.506,24.106-36.767,35.596v45.345c20.02-18.01,40.272-37.224,60.379-57.329
	c63.36-63.359,117.903-128.182,153.584-182.529c17.823-27.146,30.141-50.498,36.61-69.406
	C515.023,39.743,513.513,21.398,502.073,9.956z"/>
<path style="fill:#9B9DA6;" d="M357.682,309.968c-33.361,0-60.503-27.142-60.503-60.503s27.142-60.503,60.503-60.503
	s60.503,27.142,60.503,60.503S391.043,309.968,357.682,309.968z"/>
<g>
</g>
<g>
</g>
<g>
</g>
<g>
</g>
<g>
</g>
<g>
</g>
<g>
</g>
<g>
</g>
<g>
</g>
<g>
</g>
<g>
</g>
<g>
</g>
<g>
</g>
<g>
</g>
<g>
</g>
</svg>
